<?xml version="1.0" encoding="UTF-8" standalone="no"?>
<svg width="80px" height="60px" viewBox="0 0 80 60" version="1.1" xmlns="http://www.w3.org/2000/svg" xmlns:xlink="http://www.w3.org/1999/xlink">
    <!-- Generator: Sketch 42 (36781) - http://www.bohemiancoding.com/sketch -->
    <title>Group 3</title>
    <desc>Created with Sketch.</desc>
    <defs>
        <linearGradient x1="50%" y1="0%" x2="50%" y2="100%" id="linearGradient-1">
            <stop stop-color="#FFDC5B" offset="0%"></stop>
            <stop stop-color="#F6B82E" offset="100%"></stop>
        </linearGradient>
    </defs>
    <g id="Page-1" stroke="none" stroke-width="1" fill="none" fill-rule="evenodd">
        <g id="Group-3" fill-rule="nonzero">
            <g id="dog">
                <g id="Layer_1">
                    <path d="M40.1399196,2.71186441 C25.6448977,2.71186441 12.4675325,7.65713891 12.4675325,7.65713891 L12.4675325,34.8561487 C12.4675325,44.7466977 15.9606269,59.8441564 40.1399196,59.8441564 C64.3192124,59.8441564 67.8123068,44.7466977 67.8123068,34.8561487 L67.8123068,7.65713891 C67.8123068,7.65713891 54.6351011,2.71186441 40.1399196,2.71186441 Z" id="Shape" fill="url(#linearGradient-1)"></path>
                    <g id="Group" transform="translate(19.593949, 26.673983)" fill="#634A20">
                        <ellipse id="Oval" cx="4.46527166" cy="4.26308011" rx="4.41643971" ry="4.21024184"></ellipse>
                        <ellipse id="Oval" cx="36.8551101" cy="4.26308011" rx="4.41643971" ry="4.21024184"></ellipse>
                    </g>
                    <path d="M45.7142857,42.5177996 C45.7142857,45.1920859 42.8228012,47.3601623 40,47.3601623 C37.1771988,47.3601623 34.2857143,45.1922178 34.2857143,42.5177996 C34.2857143,39.8435134 36.8441514,38.6440678 40,38.6440678 C43.1558486,38.6440678 45.7142857,39.8433815 45.7142857,42.5177996 Z" id="Shape" fill="#845606"></path>
                    <g id="Group" transform="translate(60.049613, 0.000000)" fill="#845707">
                        <path d="M0.268828901,6.91821919 L9.29764366,28.436333 C9.81978585,29.6806793 11.6211028,29.7940454 12.3103733,28.6260425 L18.7975782,17.6315722 C19.8423983,15.860865 19.5643867,13.6490768 18.1101825,12.1638275 L7.00431587,0.820194705 C5.97489627,-0.231378123 4.21134394,-0.184014578 3.24553489,0.920922029 L0.800613113,3.7177968 C0.0204129564,4.61055494 -0.183810394,5.83919849 0.268828901,6.91821919 Z" id="Shape"></path>
                    </g>
                    <g id="Group" transform="translate(10.080257, 14.915661) scale(-1, 1) translate(-10.080257, -14.915661) translate(0.210127, 0.169898)" fill="#845707">
                        <path d="M0.268828901,6.91821919 L9.29764366,28.436333 C9.81978585,29.6806793 11.6211028,29.7940454 12.3103733,28.6260425 L18.7975782,17.6315722 C19.8423983,15.860865 19.5643867,13.6490768 18.1101825,12.1638275 L7.00431587,0.820194705 C5.97489627,-0.231378123 4.21134394,-0.184014578 3.24553489,0.920922029 L0.800613113,3.7177968 C0.0204129564,4.61055494 -0.183810394,5.83919849 0.268828901,6.91821919 Z" id="Shape"></path>
                    </g>
                </g>
            </g>
            <path d="M41.282162,44.8975676 C40.9987873,44.5943337 40.6073088,44.4067797 40.1748936,44.4067797 C39.3100633,44.4067797 38.6089797,45.1569959 38.6089797,46.0824345 C38.6089797,48.7353586 36.5992069,50.8859784 34.1200265,50.8859784 C33.2551961,50.8859784 32.5541126,51.6361947 32.5541126,52.5616333 C32.5541126,53.4870719 33.2551961,54.2372881 34.1200265,54.2372881 C36.5881239,54.2372881 38.7821875,52.9817857 40.1748936,51.03506 C41.5675998,52.9817857 43.7616634,54.2372881 46.2297608,54.2372881 C47.0945912,54.2372881 47.7956747,53.4870719 47.7956747,52.5616333 C47.7956747,51.6361947 47.0945912,50.8859784 46.2297608,50.8859784 C43.7505804,50.8859784 41.7408076,48.7353586 41.7408076,46.0824345 C41.7408076,45.6197152 41.5655367,45.2008015 41.282162,44.8975676 Z" id="Combined-Shape" fill="#845707"></path>
            <g id="sun-glasses" transform="translate(6.926407, 23.389831)">
                <g id="Layer_1">
                    <path d="M0,1.4008041 C10.4660926,-0.882711864 18.9388641,-0.0968979109 28.3239772,1.98243595 C29.7154973,2.29072527 31.185938,2.63432795 32.738641,2.67941663 C35.32438,2.75468664 38.2311995,2.14275128 40.7375039,1.544257 C50.6320013,-0.818683484 58.3613262,0.410441466 65.8098021,1.92329523 L65.2596722,6.10762318 C64.0968159,6.13218368 63.7312623,6.64746551 63.3988707,7.65371305 C61.660306,12.9193142 63.1410295,21.9796965 50.2884272,20.9143082 C41.8332649,20.2134174 39.4117937,18.0111588 35.3819637,8.32808829 C35.0390323,7.50439495 34.8161526,6.14330311 32.8583071,6.19364604 C31.7527774,6.22199448 30.7639575,6.40772566 30.4189695,8.2338786 C29.7761659,11.6365471 24.8886217,20.8811943 14.9650754,20.8711746 C6.20001526,20.8622546 2.8565623,16.5370398 2.45733253,7.0068309 C2.40771801,5.82352779 1.32301097,5.59893969 0.672495229,5.58513205 L0,1.4008041 L0,1.4008041 Z" id="Shape" fill="#4A4A4A"></path>
                    <g id="Group" transform="translate(9.640127, 0.000000)">
                        <path d="M13.0757391,1.98231376 C14.4672593,2.29060307 15.9376999,2.63420575 17.490403,2.67929444 C18.604416,2.71167521 19.7781978,2.6161214 20.9536506,2.44945211 C20.1751139,2.31614111 19.4182997,2.14482854 18.6839792,1.98219156 C12.3505445,0.578943634 6.43189244,-0.233263697 0.0365039459,0.0872447773 C4.38394396,0.302790698 8.62739913,0.996716594 13.0757391,1.98231376 Z" id="Shape" fill="#151515"></path>
                        <path d="M39.3809453,0.305112337 C41.7089716,0.439400867 43.9404681,0.726062278 46.1187511,1.08909342 C48.6155439,1.5050335 48.3132295,6.51329917 48.1505041,7.65371305 C47.4776233,12.3692077 47.5444615,19.5548049 39.5799175,20.8137446 C39.9254196,20.850402 40.2809475,20.8838825 40.6484291,20.9144304 C53.5010315,21.9798187 52.020308,12.9194363 53.7588727,7.65383524 C54.0911357,6.6475877 54.4568179,6.13230587 55.6196742,6.10774537 L56.1698041,1.92341742 C50.9313593,0.859251084 45.5528114,-0.0624398896 39.3809453,0.305112337 Z" id="Shape" fill="#101010"></path>
                        <path d="M20.1337257,8.3279661 C19.7907942,7.50427276 19.5679145,6.14330311 17.6100691,6.19352385 C16.5045393,6.22187229 15.5157194,6.40760347 15.1707314,8.23375641 C14.58564,11.3310682 10.4826736,19.2680213 2.26645802,20.6599054 C3.20347832,20.7996926 4.22109008,20.8697083 5.32520591,20.870808 C14.3925804,20.8800946 19.2546747,13.1632085 20.516503,9.23584943 C20.3902816,8.94087899 20.2629034,8.63845487 20.1337257,8.3279661 Z" id="Shape" fill="#101010"></path>
                    </g>
                    <path d="M14.4898814,4.52780844 L12.7839646,7.57318881 L9.17778609,7.96371305 C8.61184639,8.02493102 8.36544476,8.67670083 8.76081848,9.06649192 L11.280362,11.5500355 L10.5565813,14.9310761 C10.4429563,15.461754 11.0187932,15.885881 11.5310053,15.6489515 L14.7942524,14.1384194 L17.953129,15.8374931 C18.4488886,16.1041151 19.0512037,15.7146906 18.9722832,15.1782696 L18.4695827,11.7610603 L21.1455533,9.43013402 C21.5656058,9.06429247 21.3620063,8.39932598 20.8010795,8.30499409 L17.2271632,7.70356721 L15.7222752,4.56385495 C15.4858993,4.07130075 14.757877,4.04991723 14.4898814,4.52780844 Z" id="Shape" fill="#4F99E5"></path>
                    <path d="M49.5316129,4.52780844 L47.8254391,7.57318881 L44.2192605,7.96371305 C43.6533208,8.02493102 43.4069192,8.67670083 43.8022929,9.06649192 L46.3218364,11.5500355 L45.5980557,14.9310761 C45.4844307,15.461754 46.0602676,15.885881 46.5724797,15.6489515 L49.8357268,14.1384194 L52.9946035,15.8376153 C53.4903631,16.1042373 54.0926782,15.7148128 54.0137577,15.1783918 L53.5110572,11.7611825 L56.1870278,9.43025621 C56.6070802,9.06441466 56.4034808,8.39944817 55.8425539,8.30511628 L52.2686377,7.7036894 L50.7637497,4.56397714 C50.5275023,4.07130075 49.7993514,4.04991723 49.5316129,4.52780844 Z" id="Shape" fill="#FC4C59"></path>
                </g>
            </g>
        </g>
    </g>
</svg>